<svg width="32" height="32" viewBox="0 0 32 32" fill="none" xmlns="http://www.w3.org/2000/svg">
<path d="M28 15.9999C28.0003 19.1548 26.7582 22.1828 24.5425 24.4287C22.3268 26.6746 19.3158 27.9575 16.1612 27.9999H16C12.9353 28.0076 9.98535 26.8348 7.7625 24.7249C7.66705 24.6346 7.59031 24.5264 7.53667 24.4065C7.48303 24.2866 7.45354 24.1572 7.44989 24.0259C7.44623 23.8946 7.46848 23.7638 7.51536 23.6411C7.56224 23.5183 7.63284 23.406 7.72312 23.3106C7.81341 23.2151 7.92161 23.1384 8.04155 23.0847C8.16149 23.0311 8.29082 23.0016 8.42216 22.9979C8.55349 22.9943 8.68427 23.0165 8.807 23.0634C8.92974 23.1103 9.04205 23.1809 9.1375 23.2712C10.5672 24.6195 12.3626 25.5167 14.2993 25.8507C16.236 26.1846 18.2281 25.9405 20.0269 25.1488C21.8256 24.3571 23.3512 23.053 24.4131 21.3993C25.475 19.7456 26.026 17.8157 25.9974 15.8506C25.9688 13.8856 25.3619 11.9725 24.2523 10.3504C23.1428 8.72829 21.5799 7.46908 19.7589 6.73006C17.9379 5.99104 15.9395 5.80498 14.0133 6.19512C12.0872 6.58526 10.3187 7.5343 8.92875 8.92368C8.91854 8.93473 8.90769 8.94516 8.89625 8.95493L5.57375 11.9999H9C9.26522 11.9999 9.51957 12.1053 9.70711 12.2928C9.89464 12.4804 10 12.7347 10 12.9999C10 13.2652 9.89464 13.5195 9.70711 13.707C9.51957 13.8946 9.26522 13.9999 9 13.9999H3C2.73478 13.9999 2.48043 13.8946 2.29289 13.707C2.10536 13.5195 2 13.2652 2 12.9999V6.99993C2 6.73472 2.10536 6.48036 2.29289 6.29283C2.48043 6.10529 2.73478 5.99993 3 5.99993C3.26522 5.99993 3.51957 6.10529 3.70711 6.29283C3.89464 6.48036 4 6.73472 4 6.99993V10.7249L7.53125 7.49993C9.21123 5.82648 11.3493 4.68827 13.6757 4.22897C16.002 3.76968 18.4122 4.00989 20.6022 4.91929C22.7921 5.82869 24.6635 7.36651 25.9801 9.33862C27.2968 11.3107 27.9996 13.6287 28 15.9999Z" fill="#101828"/>
</svg>
