<?xml version="1.0" encoding="UTF-8"?>
<svg width="120" height="32" viewBox="0 0 120 32" fill="none" xmlns="http://www.w3.org/2000/svg">
  <path d="M20.5 6.5C20.5 9.8137 17.8137 12.5 14.5 12.5C11.1863 12.5 8.5 9.8137 8.5 6.5C8.5 3.18629 11.1863 0.5 14.5 0.5C17.8137 0.5 20.5 3.18629 20.5 6.5Z" fill="#1890FF"/>
  <path d="M0.5 24.5C0.5 19.5294 4.52944 15.5 9.5 15.5H19.5C24.4706 15.5 28.5 19.5294 28.5 24.5V31.5H0.5V24.5Z" fill="#1890FF"/>
  <path d="M38 8H45.384L49.452 22.508H49.704L54.24 8H60.456L65.028 22.508H65.244L69.312 8H76.696L69.24 31H62.064L57.348 16.796H57.312L52.596 31H45.456L38 8Z" fill="#1F2937"/>
  <path d="M79.0697 31V8H98.5377V13.592H85.9257V16.724H97.5977V22.316H85.9257V25.408H98.5377V31H79.0697Z" fill="#1F2937"/>
  <path d="M102.535 31V8H118.271C118.271 8 118.271 13.592 118.271 13.592H109.391V16.724H117.331V22.316H109.391V31H102.535Z" fill="#1F2937"/>
</svg>
